<svg width="27" height="27" viewBox="0 0 27 27" fill="none" xmlns="http://www.w3.org/2000/svg">
<path d="M11.624 26.416C11.304 26.416 11.016 26.304 10.76 26.08C10.536 25.824 10.424 25.536 10.424 25.216V16.432H1.88C1.528 16.432 1.224 16.32 0.968 16.096C0.744 15.872 0.632 15.584 0.632 15.232V11.728C0.632 11.376 0.744 11.088 0.968 10.864C1.224 10.608 1.528 10.48 1.88 10.48H10.424V1.984C10.424 1.632 10.536 1.344 10.76 1.12C11.016 0.895999 11.304 0.783998 11.624 0.783998H15.56C15.912 0.783998 16.2 0.895999 16.424 1.12C16.648 1.344 16.76 1.632 16.76 1.984V10.48H25.256C25.608 10.48 25.896 10.608 26.12 10.864C26.344 11.088 26.456 11.376 26.456 11.728V15.232C26.456 15.584 26.344 15.872 26.12 16.096C25.896 16.32 25.608 16.432 25.256 16.432H16.76V25.216C16.76 25.536 16.648 25.824 16.424 26.08C16.2 26.304 15.912 26.416 15.56 26.416H11.624Z" fill="#5A17FF"/>
</svg>
